<svg width="423" height="423" viewBox="0 0 423 423" fill="none" xmlns="http://www.w3.org/2000/svg">
<path d="M421.729 392.595L284.413 255.279C305.722 227.732 317.249 194.05 317.249 158.624C317.249 116.219 300.699 76.4569 270.772 46.4769C240.845 16.4969 200.977 0 158.624 0C116.272 0 76.404 16.5498 46.4769 46.4769C16.4969 76.404 0 116.219 0 158.624C0 200.977 16.5498 240.845 46.4769 270.772C76.404 300.752 116.219 317.249 158.624 317.249C194.05 317.249 227.679 305.722 255.227 284.466L392.542 421.729C392.945 422.132 393.423 422.452 393.949 422.67C394.475 422.888 395.039 423 395.609 423C396.179 423 396.743 422.888 397.269 422.67C397.795 422.452 398.273 422.132 398.676 421.729L421.729 398.729C422.132 398.326 422.452 397.848 422.67 397.322C422.888 396.796 423 396.231 423 395.662C423 395.092 422.888 394.528 422.67 394.002C422.452 393.476 422.132 392.998 421.729 392.595V392.595ZM242.378 242.378C219.959 264.744 190.243 277.064 158.624 277.064C127.005 277.064 97.2896 264.744 74.8707 242.378C52.5046 219.959 40.1848 190.243 40.1848 158.624C40.1848 127.005 52.5046 97.2367 74.8707 74.8707C97.2896 52.5046 127.005 40.1848 158.624 40.1848C190.243 40.1848 220.012 52.4518 242.378 74.8707C264.744 97.2896 277.064 127.005 277.064 158.624C277.064 190.243 264.744 220.012 242.378 242.378Z" fill="black"/>
</svg>
